<svg xmlns="http://www.w3.org/2000/svg" xmlns:svg="http://www.w3.org/2000/svg" id="svg2386" width="210mm" height="297mm" version="1.1" viewBox="0 0 210 297" xml:space="preserve"><defs id="defs2383"><clipPath id="clipPath386" clipPathUnits="userSpaceOnUse"><path id="path384" d="M 0,0 H 1545 V 425 H 0 Z"/></clipPath><clipPath id="clipPath394" clipPathUnits="userSpaceOnUse"><path id="path392" d="M 162.196,209.338 H 296.515 V 78.9889 H 162.196 Z"/></clipPath><clipPath id="clipPath410" clipPathUnits="userSpaceOnUse"><path id="path408" d="M 162.196,339.685 H 296.379 V 209.337 H 162.196 Z"/></clipPath><clipPath id="clipPath426" clipPathUnits="userSpaceOnUse"><path id="path424" d="M 296.243,339.685 H 430.562 V 78.9889 H 296.243 Z"/></clipPath><clipPath id="clipPath446" clipPathUnits="userSpaceOnUse"><path id="path444" d="m 250.017,275.181 v 0 z"/></clipPath><clipPath id="clipPath462" clipPathUnits="userSpaceOnUse"><path id="path460" d="M 0,0 H 1545 V 425 H 0 Z"/></clipPath><clipPath id="clipPath470" clipPathUnits="userSpaceOnUse"><path id="path468" d="M 181.997,209.337 H 296.495 V 98.4257 H 181.997 Z"/></clipPath><clipPath id="clipPath486" clipPathUnits="userSpaceOnUse"><path id="path484" d="M 181.997,320.248 H 296.379 V 209.337 H 181.997 Z"/></clipPath><clipPath id="clipPath502" clipPathUnits="userSpaceOnUse"><path id="path500" d="M 296.263,320.248 H 410.761 V 98.4257 H 296.263 Z"/></clipPath><clipPath id="clipPath522" clipPathUnits="userSpaceOnUse"><path id="path520" d="M 218.52,292.08 H 402.994 V 110.583 H 218.52 Z"/></clipPath></defs><g id="layer1"><g id="g376" transform="matrix(0.35277777,0,0,-0.35277777,145.66824,105.89524)"><path d="M 0,0 -134.183,-130.348 -268.367,0 -134.183,130.348 Z" style="fill:#383ce0;fill-opacity:1;fill-rule:nonzero;stroke:none" id="path378"/></g><g id="g380" transform="matrix(0.35277777,0,0,-0.35277777,-6.2245996,179.74457)"><g id="g382" clip-path="url(#clipPath386)"><g id="g388"><g id="g402"><g id="g400" clip-path="url(#clipPath394)" opacity=".4"><g id="g398" transform="translate(296.379,78.9889)"><path d="m 0,0 -134.183,130.348 1.788,10e-4 L 0.136,1.606 Z" style="fill:#0ff;fill-opacity:1;fill-rule:nonzero;stroke:none" id="path396"/></g></g></g></g><g id="g404"><g id="g418"><g id="g416" clip-path="url(#clipPath410)" opacity=".4"><g id="g414" transform="translate(296.379,339.6845)"><path d="m 0,0 -0.136,-1.606 -132.259,-128.741 -1.788,-0.001 z" style="fill:#1b1464;fill-opacity:1;fill-rule:nonzero;stroke:none" id="path412"/></g></g></g></g><g id="g420"><g id="g438"><g id="g436" clip-path="url(#clipPath426)" opacity=".4"><g id="g430" transform="translate(296.379,339.6845)"><path d="m 0,0 134.183,-130.348 -0.894,-0.869 L -0.136,-1.606 Z" style="fill:#0ff;fill-opacity:1;fill-rule:nonzero;stroke:none" id="path428"/></g><g id="g434" transform="translate(296.379,78.9889)"><path d="m 0,0 0.136,1.606 132.259,128.741 1.788,0.001 z" style="fill:#1b1464;fill-opacity:1;fill-rule:nonzero;stroke:none" id="path432"/></g></g></g></g></g></g><g id="g452" transform="matrix(0.35277777,0,0,-0.35277777,138.68289,105.89524)"><path d="M 0,0 -114.382,-110.911 -228.765,0 -114.382,110.911 Z" style="fill:#383ce0;fill-opacity:1;fill-rule:nonzero;stroke:none" id="path454"/></g><g id="g456" transform="matrix(0.35277777,0,0,-0.35277777,-6.2245996,179.74457)"><g id="g458" clip-path="url(#clipPath462)"><g id="g464"><g id="g478"><g id="g476" clip-path="url(#clipPath470)" opacity=".4"><g id="g474" transform="translate(296.379,98.4257)"><path d="m 0,0 -114.382,110.911 1.524,0.001 L 0.116,1.366 Z" style="fill:#0ff;fill-opacity:1;fill-rule:nonzero;stroke:none" id="path472"/></g></g></g></g><g id="g480"><g id="g494"><g id="g492" clip-path="url(#clipPath486)" opacity=".4"><g id="g490" transform="translate(296.379,320.2477)"><path d="m 0,0 -0.116,-1.366 -112.742,-109.544 -1.524,-0.001 z" style="fill:#1b1464;fill-opacity:1;fill-rule:nonzero;stroke:none" id="path488"/></g></g></g></g><g id="g496"><g id="g514"><g id="g512" clip-path="url(#clipPath502)" opacity=".4"><g id="g506" transform="translate(296.379,320.2477)"><path d="M 0,0 114.382,-110.911 113.62,-111.65 -0.116,-1.366 Z" style="fill:#0ff;fill-opacity:1;fill-rule:nonzero;stroke:none" id="path504"/></g><g id="g510" transform="translate(296.379,98.4257)"><path d="m 0,0 0.116,1.366 112.742,109.544 1.524,0.001 z" style="fill:#1b1464;fill-opacity:1;fill-rule:nonzero;stroke:none" id="path508"/></g></g></g></g><g id="g516"><g id="g546"><g id="g544" clip-path="url(#clipPath522)" opacity=".66"><g id="g526" transform="translate(242.5565,113.8853)"><path d="m 0,0 h -24.037 v 163.892 c 0,6.542 5.304,11.845 11.846,11.845 h 0.346 C -5.303,175.737 0,170.434 0,163.892 Z" style="fill:#1a1a5b;fill-opacity:1;fill-rule:nonzero;stroke:none" id="path524"/></g><g id="g530" transform="translate(219.7195,272.2589)"><path d="m 0,0 22.204,9.375 78.353,-153.7 c 3.226,-5.635 1.139,-12.744 -4.662,-15.877 v 0 c -5.801,-3.134 -13.119,-1.106 -16.345,4.529 z" style="fill:#1a1a5b;fill-opacity:1;fill-rule:nonzero;stroke:none" id="path528"/></g><g id="g534" transform="translate(321.6223,119.5552)"><path d="m 0,0 -21.959,9.497 80.33,155.295 c 2.7,5.891 9.804,8.54 15.868,5.917 6.064,-2.623 8.791,-9.524 6.091,-15.414 z" style="fill:#1a1a5b;fill-opacity:1;fill-rule:nonzero;stroke:none" id="path532"/></g><g id="g538" transform="translate(320.9923,124.9457)"><path d="m 0,0 h -24.037 v 155.289 c 0,6.542 5.304,11.846 11.846,11.846 h 0.346 C -5.303,167.135 0,161.831 0,155.289 Z" style="fill:#1a1a5b;fill-opacity:1;fill-rule:nonzero;stroke:none" id="path536"/></g><g id="g542" transform="translate(298.1553,274.7168)"><path d="m 0,0 21.007,11.348 79.55,-155.673 c 3.226,-5.635 1.139,-12.744 -4.662,-15.877 v 0 c -5.801,-3.134 -13.119,-1.106 -16.345,4.529 z" style="fill:#1a1a5b;fill-opacity:1;fill-rule:nonzero;stroke:none" id="path540"/></g></g></g></g><g id="g548" transform="translate(231.1706,120.6444)"><path d="m 0,0 h -24.037 v 163.892 c 0,6.542 5.304,11.845 11.846,11.845 h 0.346 C -5.303,175.737 0,170.434 0,163.892 Z" style="fill:#cee3f0;fill-opacity:1;fill-rule:nonzero;stroke:none" id="path550"/></g><g id="g552" transform="translate(208.3337,279.0181)"><path d="m 0,0 22.204,9.375 78.353,-153.7 c 3.226,-5.635 1.139,-12.744 -4.662,-15.877 v 0 c -5.801,-3.134 -13.119,-1.106 -16.345,4.529 z" style="fill:#cee3f0;fill-opacity:1;fill-rule:nonzero;stroke:none" id="path554"/></g><g id="g556" transform="translate(310.2364,126.3143)"><path d="m 0,0 -21.959,9.497 80.33,155.295 c 2.7,5.891 9.804,8.54 15.868,5.917 v 0 c 6.064,-2.623 8.791,-9.524 6.091,-15.414 z" style="fill:#cee3f0;fill-opacity:1;fill-rule:nonzero;stroke:none" id="path558"/></g><g id="g560" transform="translate(309.6064,131.7048)"><path d="m 0,0 h -24.037 v 155.289 c 0,6.542 5.304,11.846 11.846,11.846 h 0.346 C -5.303,167.135 0,161.831 0,155.289 Z" style="fill:#cee3f0;fill-opacity:1;fill-rule:nonzero;stroke:none" id="path562"/></g><g id="g564" transform="translate(286.7695,281.4759)"><path d="m 0,0 21.007,11.348 79.55,-155.673 c 3.226,-5.635 1.139,-12.744 -4.662,-15.877 v 0 c -5.801,-3.134 -13.119,-1.106 -16.345,4.529 z" style="fill:#cee3f0;fill-opacity:1;fill-rule:nonzero;stroke:none" id="path566"/></g><g id="g568" transform="translate(217.9691,287.779)"><path d="M 0,0 H -0.164 C -3.263,0 -5.775,-2.512 -5.775,-5.611 V -167.135 H 5.611 V -5.611 C 5.611,-2.512 3.099,0 0,0" style="fill:#fff;fill-opacity:1;fill-rule:nonzero;stroke:none" id="path570"/></g><g id="g572" transform="translate(300.5637,124.8264)"><path d="M 0,0 V 0 C 2.825,1.341 3.996,4.652 2.616,7.397 L -77.374,159.355 -87.605,154.499 -7.614,2.541 C -6.234,-0.203 -2.825,-1.341 0,0" style="fill:#fff;fill-opacity:1;fill-rule:nonzero;stroke:none" id="path574"/></g><g id="g576" transform="translate(297.67,290.2369)"><path d="M 0,0 H -0.164 C -3.263,0 -5.775,-2.512 -5.775,-5.611 V -158.532 H 5.611 V -5.611 C 5.611,-2.512 3.099,0 0,0" style="fill:#fff;fill-opacity:1;fill-rule:nonzero;stroke:none" id="path578"/></g><g id="g580" transform="translate(379.6321,127.8987)"><path d="m 0,0 v 0 c 2.825,1.341 3.996,4.652 2.616,7.397 l -79.6,151.869 -10.621,-4.767 L -7.614,2.541 C -6.234,-0.203 -2.825,-1.341 0,0" style="fill:#fff;fill-opacity:1;fill-rule:nonzero;stroke:none" id="path582"/></g><g id="g584" transform="translate(380.8579,288.5077)"><path d="m 0,0 v 0 c -2.752,1.478 -6.215,0.509 -7.737,-2.164 l -81.602,-149.775 c -0.346,-0.637 -0.221,-1.42 0.309,-1.924 l 8.552,-8.141 c 0.81,-0.771 2.157,-0.554 2.668,0.429 L 2.228,-7.515 C 3.749,-4.842 2.752,-1.478 0,0" style="fill:#fff;fill-opacity:1;fill-rule:nonzero;stroke:none" id="path586"/></g></g></g><g aria-label="NuttX RTOS" transform="matrix(0.34243632,0,0,0.34243632,41.3307,-123.7419)" style="font-style:normal;font-variant:normal;font-weight:400;font-stretch:normal;font-size:48px;line-height:1.25;font-family:'Bitstream Vera Serif';-inkscape-font-specification:'Bitstream Vera Serif';letter-spacing:0;word-spacing:0;fill:#000;fill-opacity:1;stroke:none" id="flowRoot827"><path d="m 10.0625,835.83984 h 10.078125 l 12.726562,24 v -24 h 8.554688 v 34.99219 H 31.34375 l -12.726563,-24 v 24 H 10.0625 Z" style="font-style:normal;font-variant:normal;font-weight:700;font-stretch:normal;font-family:'Bitstream Vera Sans';-inkscape-font-specification:'Bitstream Vera Sans Bold'" id="path832"/><path d="m 49.578125,860.61328 v -16.03125 h 8.4375 v 2.625 q 0,2.13281 -0.02344,5.36719 -0.02344,3.21094 -0.02344,4.28906 0,3.16406 0.164062,4.57031 0.164063,1.38282 0.5625,2.01563 0.515625,0.82031 1.335938,1.26562 0.84375,0.44532 1.921875,0.44532 2.625,0 4.125,-2.01563 1.5,-2.01562 1.5,-5.60156 v -12.96094 h 8.390625 v 26.25 H 67.57812 v -3.79687 q -1.898438,2.29687 -4.03125,3.39843 -2.109375,1.07813 -4.664063,1.07813 -4.546875,0 -6.9375,-2.78906 -2.367187,-2.78907 -2.367187,-8.10938 z" style="font-style:normal;font-variant:normal;font-weight:700;font-stretch:normal;font-family:'Bitstream Vera Sans';-inkscape-font-specification:'Bitstream Vera Sans Bold'" id="path834"/><path d="m 93.195312,837.12891 v 7.45312 h 8.648438 v 6 h -8.648438 v 11.13281 q 0,1.82813 0.726563,2.48438 0.726562,0.63281 2.882812,0.63281 h 4.312503 v 6 h -7.195315 q -4.96875,0 -7.054688,-2.0625 -2.0625,-2.08594 -2.0625,-7.05469 v -11.13281 h -4.171875 v -6 h 4.171875 v -7.45312 z" style="font-style:normal;font-variant:normal;font-weight:700;font-stretch:normal;font-family:'Bitstream Vera Sans';-inkscape-font-specification:'Bitstream Vera Sans Bold'" id="path836"/><path d="m 116.14063,837.12891 v 7.45312 h 8.64843 v 6 h -8.64843 v 11.13281 q 0,1.82813 0.72656,2.48438 0.72656,0.63281 2.88281,0.63281 h 4.3125 v 6 h -7.19531 q -4.96875,0 -7.05469,-2.0625 -2.0625,-2.08594 -2.0625,-7.05469 v -11.13281 h -4.17187 v -6 H 107.75 v -7.45312 z" style="font-style:normal;font-variant:normal;font-weight:700;font-stretch:normal;font-family:'Bitstream Vera Sans';-inkscape-font-specification:'Bitstream Vera Sans Bold'" id="path838"/><path d="m 149.79687,852.97266 12.14063,17.85937 h -9.39844 l -8.17969,-11.95312 -8.10937,11.95312 h -9.44531 l 12.14062,-17.85937 -11.67187,-17.13282 h 9.42187 l 7.66406,11.27344 L 152,835.83984 h 9.46875 z" style="font-style:normal;font-variant:normal;font-weight:700;font-stretch:normal;font-family:'Bitstream Vera Sans';-inkscape-font-specification:'Bitstream Vera Sans Bold'" id="path840"/><path d="m 196.83594,851.35547 q 2.83593,0 4.05468,-1.05469 1.24219,-1.05469 1.24219,-3.46875 0,-2.39062 -1.24219,-3.42187 -1.21875,-1.03125 -4.05468,-1.03125 h -3.79688 v 8.97656 z m -3.79688,6.23437 v 13.24219 h -9.02344 v -34.99219 h 13.78125 q 6.91407,0 10.125,2.32032 3.23438,2.32031 3.23438,7.33593 0,3.46875 -1.6875,5.69532 -1.66406,2.22656 -5.03906,3.28125 1.85156,0.42187 3.30468,1.92187 1.47657,1.47656 2.97657,4.5 l 4.89843,9.9375 H 206 l -4.26563,-8.69531 q -1.28906,-2.625 -2.625,-3.58594 -1.3125,-0.96094 -3.51562,-0.96094 z" style="font-style:normal;font-variant:normal;font-weight:700;font-stretch:normal;font-family:'Bitstream Vera Sans';-inkscape-font-specification:'Bitstream Vera Sans Bold'" id="path842"/><path d="m 214.64844,835.83984 h 32.25 v 6.82032 h -11.60157 v 28.17187 h -9.02343 v -28.17187 h -11.625 z" style="font-style:normal;font-variant:normal;font-weight:700;font-stretch:normal;font-family:'Bitstream Vera Sans';-inkscape-font-specification:'Bitstream Vera Sans Bold'" id="path844"/><path d="m 267.54687,841.74609 q -4.125,0 -6.39843,3.04688 -2.27344,3.04687 -2.27344,8.57812 0,5.50782 2.27344,8.55469 2.27343,3.04688 6.39843,3.04688 4.14844,0 6.42188,-3.04688 2.27344,-3.04687 2.27344,-8.55469 0,-5.53125 -2.27344,-8.57812 -2.27344,-3.04688 -6.42188,-3.04688 z m 0,-6.53906 q 8.4375,0 13.21875,4.82813 4.78125,4.82812 4.78125,13.33593 0,8.48438 -4.78125,13.3125 -4.78125,4.82813 -13.21875,4.82813 -8.41406,0 -13.21875,-4.82813 -4.78125,-4.82812 -4.78125,-13.3125 0,-8.50781 4.78125,-13.33593 4.80469,-4.82813 13.21875,-4.82813 z" style="font-style:normal;font-variant:normal;font-weight:700;font-stretch:normal;font-family:'Bitstream Vera Sans';-inkscape-font-specification:'Bitstream Vera Sans Bold'" id="path847"/><path d="m 316.71875,836.94141 v 7.40625 q -2.88281,-1.28907 -5.625,-1.94532 -2.74219,-0.65625 -5.17969,-0.65625 -3.23437,0 -4.78125,0.89063 -1.54687,0.89062 -1.54687,2.76562 0,1.40625 1.03125,2.20313 1.05468,0.77344 3.79687,1.33594 l 3.84375,0.77343 q 5.83594,1.17188 8.29688,3.5625 2.46093,2.39063 2.46093,6.79688 0,5.78906 -3.44531,8.625 -3.42187,2.8125 -10.47656,2.8125 -3.32813,0 -6.67969,-0.63281 -3.35156,-0.63282 -6.70312,-1.875 v -7.61719 q 3.35156,1.78125 6.46875,2.69531 3.14062,0.89063 6.04687,0.89063 2.95313,0 4.52344,-0.98438 1.57031,-0.98437 1.57031,-2.8125 0,-1.64062 -1.07812,-2.53125 Q 308.1875,857.75391 305,857.05078 l -3.49219,-0.77344 q -5.25,-1.125 -7.6875,-3.58593 -2.41406,-2.46094 -2.41406,-6.63282 0,-5.22656 3.375,-8.03906 3.375,-2.8125 9.70312,-2.8125 2.88282,0 5.92969,0.44531 3.04688,0.42188 6.30469,1.28907 z" style="font-style:normal;font-variant:normal;font-weight:700;font-stretch:normal;font-family:'Bitstream Vera Sans';-inkscape-font-specification:'Bitstream Vera Sans Bold'" id="path849"/></g></g></svg>